<?xml version="1.0" encoding="UTF-8"?>
<svg version="1.1" xmlns="http://www.w3.org/2000/svg" width="1251" height="1251">
<path d="M0 0 C8.80944586 5.42424307 13.49665212 17.68707159 18.17578125 26.5078125 C23.01264296 35.53087787 27.96056753 44.47903786 33.02270508 53.37744141 C36.01927683 58.65057968 38.9899483 63.93673256 41.921875 69.24609375 C42.25036438 69.8403566 42.57885376 70.43461945 42.91729736 71.04689026 C44.50722519 73.92407348 46.09384017 76.80295658 47.67529297 79.68481445 C51.35878438 86.35625249 55.22654276 92.85319381 59.31542969 99.28076172 C66.14929536 111.00447557 67.83926058 124.48318464 65.23828125 137.7578125 C60.52880012 154.24099644 50.31966076 169.4951972 41.65625 184.12109375 C38.0175277 190.27673826 34.52362321 196.50747499 31.05078125 202.7578125 C25.36492006 212.97080487 19.52343182 223.08348155 13.61328125 233.16796875 C9.91864815 239.47351669 6.26225444 245.80075686 2.61328125 252.1328125 C1.99074463 253.21296631 1.36820801 254.29312012 0.72680664 255.40600586 C-0.53498701 257.59577584 -1.79662409 259.78563605 -3.05810547 261.97558594 C-6.18602023 267.40441192 -9.31780323 272.83100531 -12.44921875 278.2578125 C-13.69923754 280.42446833 -14.94923753 282.591135 -16.19921875 284.7578125 C-33.69921875 315.09114583 -51.19921875 345.42447917 -68.69921875 375.7578125 C-69.31804932 376.83047363 -69.93687988 377.90313477 -70.57446289 379.00830078 C-71.82357393 381.17338321 -73.07276004 383.33842232 -74.32202148 385.50341797 C-78.09298564 392.03883846 -81.86126527 398.57579568 -85.62695312 405.11425781 C-87.49233313 408.34919403 -89.36327566 411.58086943 -91.234375 414.8125 C-93.770781 419.1978811 -96.2735842 423.60049407 -98.7578125 428.015625 C-99.98824199 430.17970982 -101.21870931 432.34377314 -102.44921875 434.5078125 C-103.27595093 435.99885498 -103.27595093 435.99885498 -104.11938477 437.52001953 C-107.78468562 443.92638111 -111.41797911 449.2489571 -118.32318115 452.31027222 C-123.51142751 453.66604206 -128.51282333 453.55265414 -133.85449219 453.54833984 C-135.04874817 453.55505707 -136.24300415 453.56177429 -137.47344971 453.56869507 C-140.73816443 453.58440642 -144.00272621 453.59104833 -147.26747417 453.59232664 C-149.31154903 453.59375206 -151.35559754 453.5980291 -153.39966583 453.60332108 C-160.54347923 453.62180633 -167.68721817 453.62999383 -174.83105469 453.62841797 C-181.46920007 453.6272179 -188.10701962 453.64829729 -194.74508262 453.6799053 C-200.46082694 453.70614259 -206.17646536 453.71678212 -211.89226937 453.71550715 C-215.29863472 453.71499957 -218.70471046 453.7205681 -222.11101532 453.74186325 C-225.91640475 453.76153363 -229.7209634 453.75567962 -233.52636719 453.74365234 C-234.64047974 453.75489136 -235.75459229 453.76613037 -236.90246582 453.77770996 C-244.31771397 453.71837715 -251.70050781 452.80083343 -257.59991074 447.88129234 C-262.13693022 442.84268575 -263.39549115 437.36424462 -263.1875 430.78515625 C-261.42127969 412.05163918 -249.19444958 395.12911206 -239.94921875 379.2578125 C-239.12478271 377.84169678 -239.12478271 377.84169678 -238.28369141 376.39697266 C-235.98192488 372.44586173 -233.67785217 368.49611063 -231.37036133 364.54833984 C-224.51270803 352.81402907 -217.73256314 341.03518015 -210.94921875 329.2578125 C-203.07259286 315.58226936 -195.17801783 301.91820292 -187.21630859 288.29199219 C-180.41334252 276.64122065 -173.68279689 264.94877506 -166.94921875 253.2578125 C-159.07341151 239.5836907 -151.18066029 225.92044276 -143.21850586 212.29638672 C-138.93676958 204.96468771 -134.68701868 197.61498269 -130.44921875 190.2578125 C-125.64070031 181.90982791 -120.81016192 173.57538066 -115.94921875 165.2578125 C-108.56506982 152.62037796 -101.2543174 139.94105952 -93.94921875 127.2578125 C-86.07259286 113.58226936 -78.17801783 99.91820292 -70.21630859 86.29199219 C-65.95939093 79.0015876 -61.7286748 71.69639896 -57.51171875 64.3828125 C-56.89417725 63.31200439 -56.27663574 62.24119629 -55.64038086 61.13793945 C-52.74065221 56.10759796 -49.84388594 51.07558 -46.95263672 46.0403595 C-42.96879935 39.10275146 -38.96875133 32.17479971 -34.94921875 25.2578125 C-34.51996094 24.51595703 -34.09070313 23.77410156 -33.6484375 23.00976562 C-26.67841167 11.02180024 -16.50402908 -6.28409925 0 0 Z M-19.92163086 82.9309082 C-20.5378833 83.98366943 -21.15413574 85.03643066 -21.7890625 86.12109375 C-22.12888657 86.69491287 -22.46871063 87.26873199 -22.8188324 87.85993958 C-23.87520321 89.65205201 -24.91367248 91.4536019 -25.94921875 93.2578125 C-26.57586426 94.33595215 -27.20250977 95.4140918 -27.84814453 96.52490234 C-29.75194941 99.82285967 -31.63424937 103.13229859 -33.51171875 106.4453125 C-34.91687352 108.91598847 -36.32373148 111.38569356 -37.73046875 113.85546875 C-38.08339493 114.47556824 -38.43632111 115.09566772 -38.79994202 115.73455811 C-42.34705913 121.96419303 -45.92596046 128.17534671 -49.51171875 134.3828125 C-50.1253125 135.44508057 -50.73890625 136.50734863 -51.37109375 137.60180664 C-52.60925851 139.74502173 -53.8475395 141.88816967 -55.0859375 144.03125 C-56.96956925 147.29305257 -58.85044196 150.55643094 -60.73046875 153.8203125 C-67.34749272 165.3059841 -73.99165121 176.77491022 -80.67993164 188.21923828 C-84.96166792 195.55093729 -89.21141882 202.90064231 -93.44921875 210.2578125 C-98.25773719 218.60579709 -103.08827558 226.94024434 -107.94921875 235.2578125 C-114.69634989 246.80503736 -121.38261245 258.38683369 -128.05810547 269.97558594 C-131.80949899 276.48652507 -135.56612869 282.99444444 -139.32177734 289.50292969 C-142.46104121 294.94366586 -145.59903372 300.38512727 -148.734375 305.828125 C-154.7797734 316.32013876 -160.84106246 326.80219255 -166.94921875 337.2578125 C-168.68038924 340.22504119 -170.41112643 343.19252198 -172.14160156 346.16015625 C-173.38966708 348.29892654 -174.63910191 350.43689816 -175.88964844 352.57421875 C-179.73938653 359.15865052 -183.56064387 365.75769797 -187.32373047 372.39208984 C-188.33766223 374.17964331 -189.35665783 375.96434543 -190.38330078 377.74462891 C-195.23946238 386.2295706 -199.22805417 394.18062472 -196.94921875 404.2578125 C-194.42024297 407.81204873 -193.03676613 408.89529671 -188.94921875 410.2578125 C-184.37832737 410.51101362 -179.80500459 410.52879565 -175.22802734 410.55297852 C-173.72304834 410.56442629 -172.21810759 410.58476228 -170.71337891 410.61450195 C-158.54502024 410.85475523 -148.20217771 409.96673845 -138.8984375 401.33203125 C-138.25519531 400.64753906 -137.61195313 399.96304687 -136.94921875 399.2578125 C-136.29687256 398.58794312 -136.29687256 398.58794312 -135.63134766 397.90454102 C-130.65416565 392.50641561 -127.40845324 386.25346693 -123.94921875 379.8203125 C-122.62050732 377.38157617 -121.28513931 374.94651189 -119.94921875 372.51171875 C-119.44588013 371.59212875 -119.44588013 371.59212875 -118.93237305 370.65396118 C-115.71402933 364.79063114 -112.34720692 359.01869147 -108.94921875 353.2578125 C-103.90186293 344.68218012 -99.00824237 336.03091395 -94.19921875 327.3203125 C-89.82417743 319.40053371 -85.41103071 311.51784748 -80.78710938 303.74072266 C-77.03315808 297.42544978 -73.36399886 291.0626821 -69.69921875 284.6953125 C-64.80783537 276.20120874 -59.89525731 267.72020822 -54.94921875 259.2578125 C-44.87839993 242.01887355 -34.91524157 224.71834725 -25.01171875 207.3828125 C-24.68012756 206.80246246 -24.34853638 206.22211243 -24.00689697 205.62417603 C-20.64740777 199.74369466 -17.29107878 193.86144745 -13.94488525 187.97338867 C-12.28120638 185.04648413 -10.61532695 182.12083463 -8.94921875 179.1953125 C-8.29872559 178.05239746 -7.64823242 176.90948242 -6.97802734 175.73193359 C-3.53905097 169.71223933 -0.05444804 163.7249732 3.5078125 157.77734375 C3.87437958 157.16426865 4.24094666 156.55119354 4.61862183 155.91954041 C6.37389535 152.98606056 8.13672 150.05787022 9.91210938 147.13647461 C15.32642407 138.12624032 19.79642929 130.06628327 18.05078125 119.2578125 C16.4859868 114.99611853 14.31698976 111.18312662 12.05078125 107.2578125 C11.31794712 105.93750805 10.58759556 104.61582344 9.859375 103.29296875 C7.96958715 99.87459904 6.04440847 96.478153 4.09960938 93.09082031 C3.16173533 91.45172387 2.23809791 89.80450039 1.31640625 88.15625 C-2.29525174 81.78119049 -2.29525174 81.78119049 -7.94921875 77.2578125 C-13.28580237 76.32391037 -16.8018316 78.70282526 -19.92163086 82.9309082 Z " fill="#B88E2F" transform="translate(517.94921875,398.7421875)"/>
<path d="M0 0 C8.40756566 4.12135572 13.95721778 11.88932267 18.5 19.8125 C19.00426514 20.67214355 19.50853027 21.53178711 20.02807617 22.41748047 C21.69730648 25.27156282 23.34948752 28.13505732 25 31 C26.19371957 33.05876242 27.38773723 35.11735202 28.58203125 37.17578125 C31.75868845 42.66155291 34.91962704 48.15623712 38.07666016 53.65332031 C41.21054207 59.10638623 44.35574277 64.55291228 47.5 70 C48.75005639 72.16663414 50.00005634 74.33330083 51.25 76.5 C52.178125 78.10875 52.178125 78.10875 53.125 79.75 C58.75 89.5 58.75 89.5 60.62524414 92.75048828 C61.87435518 94.91557071 63.12354129 97.08060982 64.37280273 99.24560547 C67.51202309 104.68615706 70.64990563 110.12747216 73.78515625 115.5703125 C79.83055159 126.06232094 85.89110219 136.54481676 92 147 C98.74701194 158.54729516 105.43339318 170.12902027 112.10888672 181.71777344 C115.23680148 187.14659942 118.36858448 192.57319281 121.5 198 C122.75001879 200.16665583 124.00001878 202.3333225 125.25 204.5 C125.86875 205.5725 126.4875 206.645 127.125 207.75 C132.75 217.5 132.75 217.5 134.62524414 220.75048828 C135.87435518 222.91557071 137.12354129 225.08060982 138.37280273 227.24560547 C141.51202309 232.68615706 144.64990563 238.12747216 147.78515625 243.5703125 C153.83055159 254.06232094 159.89110219 264.54481676 166 275 C174.02267511 288.73055188 181.95858259 302.51077966 189.89550781 316.29101562 C196.56956337 327.8768181 203.25469636 339.45550077 210 351 C216.7779977 362.6014858 223.50386539 374.2324857 230.20263672 385.87988281 C231.95411865 388.92035266 233.7127065 391.95661331 235.47265625 394.9921875 C236.54445133 396.84885415 237.6160752 398.70561965 238.6875 400.5625 C239.16848145 401.38838623 239.64946289 402.21427246 240.14501953 403.06518555 C246.98634013 414.9598932 252.56056123 427.93777207 248.8046875 441.91796875 C247.03298615 446.50203098 245.06540613 448.98670003 240.7310667 451.11315155 C233.53462043 453.88268007 227.25794052 454.57414311 219.5871582 454.51757812 C217.80449051 454.52809204 217.80449051 454.52809204 215.98580933 454.53881836 C212.76059313 454.55329517 209.53604563 454.55006202 206.31084085 454.53730202 C202.91800431 454.52708665 199.5252085 454.53659049 196.13237 454.54284668 C190.44094975 454.55009553 184.74973809 454.54060542 179.05834961 454.52148438 C172.49557561 454.49968925 165.93329828 454.50679686 159.37053615 454.52879 C153.71244369 454.54698576 148.05450004 454.54948298 142.39638776 454.53903532 C139.02708276 454.53282722 135.65801074 454.53189066 132.28872108 454.54518127 C128.53369354 454.55536268 124.77961521 454.53982271 121.0246582 454.51757812 C119.92056107 454.52567505 118.81646393 454.53377197 117.6789093 454.54211426 C110.13546623 454.45951105 104.91672335 453.221964 98.95336914 448.31640625 C93.93003198 442.36625717 90.19622635 435.79474006 86.4375 429 C85.38114509 427.11654101 84.3213693 425.23503131 83.26161194 423.35348511 C82.54511211 422.08061465 81.82972999 420.80711439 81.11546326 419.5329895 C77.79162424 413.60650694 74.37572186 407.73580655 70.9375 401.875 C64.20634556 390.37220072 57.54343531 378.83075364 50.89111328 367.28222656 C47.76319852 361.85340058 44.63141552 356.42680719 41.5 351 C40.24998121 348.83334417 38.99998122 346.6666775 37.75 344.5 C37.13125 343.4275 36.5125 342.355 35.875 341.25 C24 320.66666667 12.125 300.08333333 0.25 279.5 C-0.67800415 277.8914917 -0.67800415 277.8914917 -1.62475586 276.25048828 C-2.8756448 274.08223736 -4.12645852 271.91394303 -5.37719727 269.74560547 C-8.48798335 264.35282085 -11.60004238 258.96077907 -14.71484375 253.5703125 C-20.85198331 242.94613997 -26.9701907 232.31179363 -33.04815674 221.65368652 C-38.3431479 212.36873361 -43.66885576 203.10312251 -49.0625 193.875 C-49.62396729 192.91126465 -50.18543457 191.9475293 -50.76391602 190.95458984 C-53.81675738 185.71778267 -56.89332355 180.49645674 -59.99609375 175.2890625 C-71.05466283 156.61400438 -82.94376765 136.48183958 -77.92578125 113.91796875 C-73.93114034 101.32726512 -66.06364107 89.66200186 -59.55859375 78.26171875 C-55.81999607 71.70334009 -52.15710939 65.10406847 -48.5 58.5 C-42.19788601 47.13772353 -35.8769921 35.78704285 -29.4296875 24.50634766 C-28.5084858 22.89141311 -27.59148556 21.27407105 -26.6796875 19.65380859 C-20.18429302 8.12601532 -14.6782254 -1.58806148 0 0 Z M-11 84 C-13.92171775 88.5354572 -16.47525977 93.23542262 -19 98 C-20.08133079 100.00108342 -21.16446517 102.00119405 -22.25 104 C-22.724375 104.88171875 -23.19875 105.7634375 -23.6875 106.671875 C-25 109 -25 109 -27.25 112.25 C-30.83883876 117.88960377 -31.5790029 123.31035852 -30.76171875 129.83984375 C-27.666663 142.68035708 -18.90767548 154.39293785 -12.20336914 165.5871582 C-7.82505608 172.89803209 -3.54198206 180.25354732 0.625 187.6875 C4.98540121 195.46345916 9.42513147 203.1862191 13.9375 210.875 C18.72121352 219.031437 23.40113398 227.23796798 28 235.5 C33.09757221 244.6557647 38.31084708 253.73444926 43.61157227 262.77392578 C48.10551535 270.44486901 52.53446734 278.15164545 56.9375 285.875 C66.85113735 303.25850754 76.83465709 320.60064224 86.9375 337.875 C91.72271264 346.0577068 96.45680726 354.2684573 101.15408325 362.50186157 C102.17903888 364.29767536 103.20541449 366.09267038 104.23217773 367.88745117 C107.23531873 373.13945102 110.22731505 378.39674423 113.17578125 383.6796875 C120.12488951 396.06101028 125.87708444 406.29236148 140 411 C142.66106651 411.12078288 145.29514403 411.18810449 147.95703125 411.203125 C148.73761398 411.20882507 149.51819672 411.21452515 150.32243347 411.22039795 C151.97413786 411.2298395 153.62586102 411.23637858 155.27758789 411.24023438 C157.79281887 411.24992418 160.30722691 411.28094801 162.82226562 411.3125 C164.42968267 411.31903214 166.03710553 411.32428178 167.64453125 411.328125 C168.39160843 411.3404718 169.13868561 411.3528186 169.90840149 411.36553955 C174.69463337 411.34532602 177.92736643 410.51083745 182 408 C184.6509069 405.25923185 185.44943284 403.29253699 185.5 399.5 C185.02759742 389.02874446 178.90243995 379.64477535 173.625 370.875 C172.37685522 368.76867279 171.12948621 366.66188573 169.8828125 364.5546875 C169.2424707 363.47670898 168.60212891 362.39873047 167.94238281 361.28808594 C164.7502705 355.88444484 161.62718558 350.44138446 158.5 345 C153.69238505 336.6514991 148.86093959 328.31756203 144 320 C135.97718322 306.26953183 128.04141672 292.48921914 120.10449219 278.70898438 C113.43043688 267.12318234 106.74535916 255.54446647 100 244 C93.25298806 232.45270484 86.56660682 220.87097973 79.89111328 209.28222656 C77.3868587 204.9358286 74.88006648 200.59089727 72.37304688 196.24609375 C70.49709485 192.99496521 68.62159471 189.74357626 66.74609375 186.4921875 C64.26069098 182.18398349 61.77358023 177.87677211 59.28515625 173.5703125 C53.14754502 162.94532344 47.02888482 152.31015117 40.95046997 141.6512146 C33.8987434 129.28620868 26.77249586 116.96669504 19.57226562 104.6875 C18.05709017 102.09758519 16.55066837 99.50278632 15.046875 96.90625 C14.15629935 95.3749713 13.26567751 93.84371945 12.375 92.3125 C11.98521973 91.63550049 11.59543945 90.95850098 11.19384766 90.26098633 C8.34486592 85.38105354 5.74249324 81.16166216 1 78 C-4.39147511 76.80189442 -7.71395744 80.13686319 -11 84 Z " fill="#B88E2F" transform="translate(746,398)"/>
<path d="M0 0 C8.36860524 4.81089014 13.49099842 13.4403088 18.125 21.625 C18.67430176 22.5747168 19.22360352 23.52443359 19.78955078 24.50292969 C20.9489983 26.50826551 22.10437903 28.51595769 23.25585938 30.52587891 C25.52804213 34.48184322 27.83517082 38.41686571 30.1418457 42.3527832 C39.40671728 58.17445359 48.54024318 74.07277178 57.68359375 89.96484375 C63.9995301 100.93555242 70.35054298 111.8839556 76.76480103 122.7973938 C79.23911785 127.00990136 81.70633573 131.22656637 84.17333984 135.44335938 C85.28828882 137.34720703 86.40528356 139.24986092 87.52587891 141.15039062 C103.67366364 168.57627401 103.67366364 168.57627401 101.5 183.125 C100.08010477 188.43336647 97.29483139 192.17265094 93 195.5625 C84.58134599 199.89710459 75.74816874 200.68123641 66.41688538 200.70294189 C65.69769485 200.70591302 64.97850433 200.70888414 64.23752016 200.7119453 C61.85112435 200.7205493 59.46477918 200.7221334 57.07836914 200.72363281 C55.35782262 200.7282667 53.63727712 200.73329212 51.91673279 200.73867798 C47.25972633 200.75174477 42.60273424 200.75823514 37.94571233 200.76268864 C35.03293813 200.76562724 32.1201678 200.7697334 29.20739555 200.77419281 C20.08404054 200.78784959 10.96069444 200.79752644 1.83732992 200.8013947 C-8.67688063 200.80587803 -19.19096135 200.82344636 -29.70513242 200.8523953 C-37.84634635 200.87402958 -45.98752377 200.88409983 -54.12876612 200.88543582 C-58.98538471 200.88648213 -63.84188095 200.8923536 -68.69846916 200.91025543 C-73.26628563 200.92676746 -77.83388813 200.92887645 -82.40172386 200.92011642 C-84.07340316 200.91934786 -85.74509413 200.92366485 -87.41674423 200.93357468 C-106.95057515 201.04254257 -106.95057515 201.04254257 -112.56596279 196.2167244 C-117.6065546 190.59661004 -118.3628119 185.20926404 -118.375 178 C-118.39949219 177.26458984 -118.42398438 176.52917969 -118.44921875 175.77148438 C-118.51304189 163.37915801 -112.42887508 153.16186414 -106.1875 142.875 C-105.42620595 141.60047423 -104.66597078 140.32531545 -103.90673828 139.04956055 C-101.9832663 135.82379472 -100.04663263 132.60619216 -98.10455322 129.39160156 C-96.42330055 126.60750585 -94.74898955 123.81924829 -93.07421875 121.03125 C-91.22658635 117.95573458 -89.37837428 114.88059766 -87.52612305 111.80786133 C-82.44781673 103.36550441 -77.52566427 94.83831006 -72.62451172 86.29223633 C-67.73572855 77.78748551 -62.70809021 69.37318136 -57.63598633 60.97680664 C-53.05474279 53.37296108 -48.60180961 45.70175135 -44.1875 38 C-17.92614362 -7.64755246 -17.92614362 -7.64755246 0 0 Z M-14.5078125 73.67578125 C-17.02297292 76.58910969 -18.93530129 79.42758434 -20.875 82.75 C-21.43030396 83.69637329 -21.43030396 83.69637329 -21.99682617 84.66186523 C-22.84827815 86.11769379 -23.69555861 87.57596691 -24.53955078 89.03613281 C-26.183742 91.88034725 -27.84013777 94.7173075 -29.49609375 97.5546875 C-32.72687949 103.10477565 -35.92679728 108.67186096 -39.10888672 114.25 C-40.34576878 116.41653961 -41.58681469 118.58070871 -42.83251953 120.7421875 C-44.52965254 123.69421304 -46.20524379 126.65742379 -47.875 129.625 C-48.38071533 130.49777588 -48.88643066 131.37055176 -49.4074707 132.26977539 C-52.29601337 137.46995976 -54.49977585 142.48422926 -54 148.5625 C-50.78165571 153.28944318 -47.40611097 154.27840526 -42 155.5625 C-38.63895145 155.86632875 -38.63895145 155.86632875 -35.16601562 155.8371582 C-33.8477478 155.84669022 -32.52947998 155.85622223 -31.17126465 155.86604309 C-29.74959282 155.86578166 -28.32792099 155.86484458 -26.90625 155.86328125 C-25.4308663 155.86717398 -23.95548371 155.87150983 -22.48010254 155.87626648 C-19.39701697 155.88370279 -16.31404598 155.8834558 -13.23095703 155.87817383 C-9.29358228 155.87237504 -5.3566773 155.88933227 -1.41938019 155.9125185 C1.62451893 155.92729627 4.66830585 155.9281222 7.7122345 155.92500877 C9.16340568 155.92551971 10.61458352 155.93071438 12.0657196 155.94082069 C23.87091625 156.21040151 23.87091625 156.21040151 34 150.875 C35.52652695 147.34490642 34.89596288 144.18961812 34 140.5625 C32.54726905 137.1007431 30.73616442 133.88196363 28.875 130.625 C28.34656494 129.67915039 27.81812988 128.73330078 27.27368164 127.75878906 C21.33071512 117.20845094 15.08025329 106.8376428 8.78222656 96.49658203 C7.0905472 93.71156797 5.41391308 90.91811829 3.7421875 88.12109375 C2.76588529 86.49723931 1.78933929 84.87353141 0.8125 83.25 C0.37929443 82.52135742 -0.05391113 81.79271484 -0.50024414 81.04199219 C-2.65643078 77.48357819 -4.6747875 74.15469973 -8 71.5625 C-12.03678571 71.13290502 -12.03678571 71.13290502 -14.5078125 73.67578125 Z " fill="#B88E2F" transform="translate(635,606.4375)"/>
</svg>
